<?xml version="1.0" encoding="UTF-8"?>
<level>
  <owner>stolbitsa</owner>
  <repo>supertonic-low-2</repo>
  <version>v1.0.0</version>
  <next number="1" owner="stolbitsa" repo="supertonic-harmonic"/>
  <readme>
    <ru>97d7455d19fe95887f400e8a48fc0a4fa5f3ed860ff8fed2e9c110e8e06e4438</ru>
    <en>1e527358d635f5b226eaac57ae8e7c3bdb5eade29b79b803ba1aaa7300f12fca</en>
  </readme>
  <license>b1b99f5538d1fd3702219bff50c665196dfa42f6ee755c37fe41a6178d6bc6e5</license>
  <exercise number="1">
    <scale>major</scale>
    <bpm>80</bpm>
    <lowestNote>2</lowestNote>
    <tonalities>1,2,3,4,5,6,7,8,9,10,11,12</tonalities>
    <notes>
      <note number="1" values="2,4,5,18,28" ticks="0" durationTicks="105" ppq="96" velocity="0.843"/>
      <note number="2" values="2,4,5,18,28" ticks="56" durationTicks="91" ppq="96" velocity="0.913"/>
      <note number="3" values="2,4,5,18,28" ticks="146" durationTicks="208" ppq="96" velocity="0.874"/>
      <note number="4" values="2,4,5,18,28" ticks="196" durationTicks="161" ppq="96" velocity="0.921"/>
    </notes>
  </exercise>
  <exercise number="2">
    <scale>major</scale>
    <bpm>80</bpm>
    <lowestNote>2</lowestNote>
    <tonalities>1,2,3,4,5,6,7,8,9,10,11,12</tonalities>
    <notes>
      <note number="1" values="2,4,5,18,28" ticks="0" durationTicks="105" ppq="96" velocity="0.843"/>
      <note number="2" values="2,4,5,18,28" ticks="56" durationTicks="91" ppq="96" velocity="0.913"/>
      <note number="3" values="2,4,5,18,28" ticks="146" durationTicks="208" ppq="96" velocity="0.874"/>
      <note number="4" values="2,4,5,18,28" ticks="196" durationTicks="161" ppq="96" velocity="0.921"/>
    </notes>
  </exercise>
  <exercise number="3">
    <scale>major</scale>
    <bpm>80</bpm>
    <lowestNote>2</lowestNote>
    <tonalities>1,2,3,4,5,6,7,8,9,10,11,12</tonalities>
    <notes>
      <note number="1" values="2,4,5,18,28" ticks="0" durationTicks="105" ppq="96" velocity="0.843"/>
      <note number="2" values="2,4,5,18,28" ticks="56" durationTicks="91" ppq="96" velocity="0.913"/>
      <note number="3" values="2,4,5,18,28" ticks="146" durationTicks="208" ppq="96" velocity="0.874"/>
      <note number="4" values="2,4,5,18,28" ticks="196" durationTicks="161" ppq="96" velocity="0.921"/>
    </notes>
  </exercise>
  <exercise number="4">
    <scale>major</scale>
    <bpm>80</bpm>
    <lowestNote>2</lowestNote>
    <tonalities>1,2,3,4,5,6,7,8,9,10,11,12</tonalities>
    <notes>
      <note number="1" values="2,4,5,18,28" ticks="0" durationTicks="105" ppq="96" velocity="0.843"/>
      <note number="2" values="2,4,5,18,28" ticks="56" durationTicks="91" ppq="96" velocity="0.913"/>
      <note number="3" values="2,4,5,18,28" ticks="146" durationTicks="208" ppq="96" velocity="0.874"/>
      <note number="4" values="2,4,5,18,28" ticks="196" durationTicks="161" ppq="96" velocity="0.921"/>
    </notes>
  </exercise>
  <exercise number="5">
    <scale>major</scale>
    <bpm>80</bpm>
    <lowestNote>2</lowestNote>
    <tonalities>1,2,3,4,5,6,7,8,9,10,11,12</tonalities>
    <notes>
      <note number="1" values="2,4,5,18,28" ticks="0" durationTicks="105" ppq="96" velocity="0.843"/>
      <note number="2" values="2,4,5,18,28" ticks="56" durationTicks="91" ppq="96" velocity="0.913"/>
      <note number="3" values="2,4,5,18,28" ticks="146" durationTicks="208" ppq="96" velocity="0.874"/>
      <note number="4" values="2,4,5,18,28" ticks="196" durationTicks="161" ppq="96" velocity="0.921"/>
    </notes>
  </exercise>
  <exercise number="6">
    <scale>major</scale>
    <bpm>80</bpm>
    <lowestNote>2</lowestNote>
    <tonalities>1,2,3,4,5,6,7,8,9,10,11,12</tonalities>
    <notes>
      <note number="1" values="2,4,5,18,28" ticks="0" durationTicks="105" ppq="96" velocity="0.843"/>
      <note number="2" values="2,4,5,18,28" ticks="56" durationTicks="91" ppq="96" velocity="0.913"/>
      <note number="3" values="2,4,5,18,28" ticks="146" durationTicks="208" ppq="96" velocity="0.874"/>
      <note number="4" values="2,4,5,18,28" ticks="196" durationTicks="161" ppq="96" velocity="0.921"/>
    </notes>
  </exercise>
  <exercise number="7">
    <scale>major</scale>
    <bpm>80</bpm>
    <lowestNote>2</lowestNote>
    <tonalities>1,2,3,4,5,6,7,8,9,10,11,12</tonalities>
    <notes>
      <note number="1" values="2,4,5,18,28" ticks="0" durationTicks="105" ppq="96" velocity="0.843"/>
      <note number="2" values="2,4,5,18,28" ticks="56" durationTicks="91" ppq="96" velocity="0.913"/>
      <note number="3" values="2,4,5,18,28" ticks="146" durationTicks="208" ppq="96" velocity="0.874"/>
      <note number="4" values="2,4,5,18,28" ticks="196" durationTicks="161" ppq="96" velocity="0.921"/>
    </notes>
  </exercise>
  <exercise number="8">
    <scale>major</scale>
    <bpm>80</bpm>
    <lowestNote>2</lowestNote>
    <tonalities>1,2,3,4,5,6,7,8,9,10,11,12</tonalities>
    <notes>
      <note number="1" values="2,4,5,18,28" ticks="0" durationTicks="105" ppq="96" velocity="0.843"/>
      <note number="2" values="2,4,5,18,28" ticks="56" durationTicks="91" ppq="96" velocity="0.913"/>
      <note number="3" values="2,4,5,18,28" ticks="146" durationTicks="208" ppq="96" velocity="0.874"/>
      <note number="4" values="2,4,5,18,28" ticks="196" durationTicks="161" ppq="96" velocity="0.921"/>
    </notes>
  </exercise>
  <exercise number="9">
    <scale>major</scale>
    <bpm>80</bpm>
    <lowestNote>2</lowestNote>
    <tonalities>1,2,3,4,5,6,7,8,9,10,11,12</tonalities>
    <notes>
      <note number="1" values="2,4,5,18,28" ticks="0" durationTicks="105" ppq="96" velocity="0.843"/>
      <note number="2" values="2,4,5,18,28" ticks="56" durationTicks="91" ppq="96" velocity="0.913"/>
      <note number="3" values="2,4,5,18,28" ticks="146" durationTicks="208" ppq="96" velocity="0.874"/>
      <note number="4" values="2,4,5,18,28" ticks="196" durationTicks="161" ppq="96" velocity="0.921"/>
    </notes>
  </exercise>
  <exercise number="10">
    <scale>major</scale>
    <bpm>80</bpm>
    <lowestNote>2</lowestNote>
    <tonalities>1,2,3,4,5,6,7,8,9,10,11,12</tonalities>
    <notes>
      <note number="1" values="2,4,5,18,28" ticks="0" durationTicks="105" ppq="96" velocity="0.843"/>
      <note number="2" values="2,4,5,18,28" ticks="56" durationTicks="91" ppq="96" velocity="0.913"/>
      <note number="3" values="2,4,5,18,28" ticks="146" durationTicks="208" ppq="96" velocity="0.874"/>
      <note number="4" values="2,4,5,18,28" ticks="196" durationTicks="161" ppq="96" velocity="0.921"/>
    </notes>
  </exercise>
</level>
